<svg width="77" height="93" viewBox="0 0 77 93" fill="none" xmlns="http://www.w3.org/2000/svg">
<g filter="url(#filter0_ddddd_4161_508)">
<path d="M66.4758 20.6432H55.4263C55.5492 20.5392 55.6752 20.4384 55.7949 20.3282C56.7515 19.4783 57.5225 18.4402 58.0595 17.2787C58.5966 16.1173 58.8883 14.8575 58.9163 13.5782C58.9577 12.1787 58.7126 10.7855 58.196 9.48408C57.6795 8.18271 56.9024 7.00064 55.9125 6.01044C54.9226 5.02024 53.7408 4.24282 52.4396 3.72589C51.1383 3.20896 49.7452 2.96344 48.3456 3.0044C47.0658 3.03196 45.8054 3.32342 44.6434 3.86053C43.4814 4.39764 42.4428 5.16883 41.5925 6.12583C40.416 7.48935 39.4596 9.02817 38.7577 10.6867C38.0559 9.02817 37.0994 7.48935 35.9229 6.12583C35.0727 5.16883 34.034 4.39764 32.872 3.86053C31.71 3.32342 30.4496 3.03196 29.1698 3.0044C27.7702 2.96344 26.3771 3.20896 25.0759 3.72589C23.7746 4.24282 22.5928 5.02024 21.6029 6.01044C20.613 7.00064 19.8359 8.18271 19.3194 9.48408C18.8028 10.7855 18.5577 12.1787 18.5991 13.5782C18.6271 14.8575 18.9188 16.1173 19.4559 17.2787C19.993 18.4402 20.7639 19.4783 21.7206 20.3282C21.8402 20.4321 21.9662 20.5329 22.0891 20.6432H11.0396C9.70305 20.6432 8.4212 21.1741 7.47608 22.1192C6.53096 23.0644 6 24.3462 6 25.6828V35.7621C6 37.0987 6.53096 38.3806 7.47608 39.3257C8.4212 40.2708 9.70305 40.8018 11.0396 40.8018V60.9604C11.0396 62.2969 11.5706 63.5788 12.5157 64.5239C13.4608 65.469 14.7427 66 16.0793 66H34.978C35.3121 66 35.6326 65.8673 35.8689 65.631C36.1051 65.3947 36.2379 65.0742 36.2379 64.7401V35.7621H11.0396V25.6828H36.2379V35.7621H41.2775V25.6828H66.4758V35.7621H41.2775V64.7401C41.2775 65.0742 41.4103 65.3947 41.6466 65.631C41.8828 65.8673 42.2033 66 42.5374 66H61.4361C62.7727 66 64.0546 65.469 64.9997 64.5239C65.9448 63.5788 66.4758 62.2969 66.4758 60.9604V40.8018C67.8124 40.8018 69.0942 40.2708 70.0393 39.3257C70.9845 38.3806 71.5154 37.0987 71.5154 35.7621V25.6828C71.5154 24.3462 70.9845 23.0644 70.0393 22.1192C69.0942 21.1741 67.8124 20.6432 66.4758 20.6432ZM25.0593 16.5485C24.6187 16.1495 24.2654 15.6637 24.0215 15.1217C23.7775 14.5796 23.6483 13.993 23.6419 13.3987C23.626 12.7023 23.7492 12.0097 24.0044 11.3615C24.2595 10.7133 24.6415 10.1226 25.1278 9.62389C25.6142 9.12521 26.1952 8.72861 26.8368 8.45733C27.4784 8.18604 28.1677 8.04554 28.8642 8.04405H29.0186C29.6129 8.05046 30.1996 8.17968 30.7416 8.42359C31.2836 8.66751 31.7694 9.02086 32.1684 9.46145C34.811 12.4474 35.7434 17.3989 36.0709 20.4605C32.9968 20.1361 28.0485 19.2037 25.0593 16.5485ZM52.4624 16.5485C49.4733 19.1943 44.5124 20.1266 41.4382 20.4542C41.813 17.1438 42.8524 12.2962 45.3722 9.4646C45.7712 9.02401 46.257 8.67066 46.799 8.42674C47.3411 8.18283 47.9277 8.05361 48.522 8.04719H48.6764C49.373 8.05155 50.0618 8.19491 50.7023 8.46886C51.3428 8.74282 51.9222 9.14186 52.4065 9.64261C52.8908 10.1434 53.2703 10.7357 53.5228 11.385C53.7752 12.0343 53.8955 12.7275 53.8767 13.4239C53.8664 14.0142 53.735 14.5961 53.4907 15.1336C53.2463 15.6711 52.8942 16.1526 52.4561 16.5485H52.4624Z" fill="#D658B3"/>
<path d="M54.2959 19.3072L50.6489 22.3932H55.4263H66.4758C67.3482 22.3932 68.185 22.7398 68.8019 23.3567C69.4188 23.9736 69.7654 24.8103 69.7654 25.6828V35.7621C69.7654 36.6346 69.4188 37.4713 68.8019 38.0882C68.185 38.7052 67.3482 39.0518 66.4758 39.0518H64.7258V40.8018V60.9604C64.7258 61.8328 64.3792 62.6696 63.7623 63.2865C63.1453 63.9034 62.3086 64.25 61.4361 64.25H43.0275V37.5121H66.4758H68.2258V35.7621V25.6828V23.9328H66.4758H41.2775H39.5275V25.6828V34.0121H37.9879V25.6828V23.9328H36.2379H11.0396H9.28965V25.6828V35.7621V37.5121H11.0396H34.4879V64.25H16.0793C15.2068 64.25 14.3701 63.9034 13.7532 63.2865C13.1362 62.6696 12.7896 61.8328 12.7896 60.9604V40.8018V39.0518H11.0396C10.1672 39.0518 9.33044 38.7052 8.71352 38.0882C8.09659 37.4713 7.75 36.6346 7.75 35.7621V25.6828C7.75 24.8103 8.09659 23.9736 8.71352 23.3567C9.33044 22.7398 10.1672 22.3932 11.0396 22.3932H22.0891H26.6592L23.2579 19.3407C23.1733 19.2648 23.0002 19.1186 22.9155 19.0471C22.8959 19.0306 22.8811 19.018 22.8731 19.0113C22.101 18.3229 21.4785 17.4832 21.0443 16.5442C20.6082 15.6013 20.3714 14.5785 20.3487 13.5399L20.3488 13.5399L20.3484 13.5265C20.314 12.3653 20.5174 11.2094 20.9459 10.1297C21.3745 9.04997 22.0192 8.06923 22.8405 7.24769C23.6618 6.42615 24.6424 5.78113 25.722 5.35225C26.8016 4.92337 27.9574 4.71967 29.1186 4.75365L29.1186 4.7537L29.1321 4.75399C30.1711 4.77637 31.1944 5.01299 32.1378 5.44905C33.0774 5.88337 33.9177 6.50623 34.6064 7.2789C35.6601 8.50209 36.5169 9.88188 37.1461 11.3687L38.7577 15.1772L40.3693 11.3687C40.9985 9.88188 41.8553 8.50209 42.909 7.2789C43.5977 6.50623 44.438 5.88337 45.3776 5.44905C46.321 5.01299 47.3443 4.77637 48.3833 4.75404L48.3968 4.75365C49.558 4.71967 50.7139 4.92337 51.7935 5.35225C52.873 5.78113 53.8536 6.42615 54.6749 7.24769C55.4962 8.06924 56.1409 9.04997 56.5695 10.1297C56.998 11.2094 57.2014 12.3653 57.1671 13.5265L57.167 13.5265L57.1667 13.5399C57.1574 13.9635 57.1126 14.3845 57.0331 14.7985H55.4515C55.5589 14.3623 55.6177 13.9144 55.6262 13.463C55.6502 12.5366 55.4897 11.6147 55.1538 10.7509C54.817 9.88453 54.3106 9.09412 53.6644 8.42598C53.0182 7.75783 52.2451 7.22539 51.3905 6.85985C50.5358 6.49432 49.6168 6.30304 48.6873 6.29723L48.6873 6.29719H48.6764H48.522H48.5126L48.5032 6.2973C47.6676 6.30631 46.8429 6.48797 46.0809 6.83088C45.3189 7.17379 44.636 7.67053 44.0751 8.28994L44.07 8.29556L44.0649 8.30124C42.5737 9.97701 41.5896 12.1591 40.9312 14.2555C40.2667 16.3717 39.8952 18.5271 39.6993 20.2573L39.4538 22.4255L41.6236 22.1943C43.2267 22.0235 45.3515 21.6926 47.4891 21.0456C49.6086 20.4042 51.8633 19.4158 53.6223 17.8589L57.0233 14.8485C56.9072 15.432 56.7222 16.0013 56.4712 16.5442C56.0351 17.4871 55.4092 18.3299 54.6326 19.0199L54.6208 19.0303L54.6093 19.041C54.556 19.09 54.5135 19.1254 54.4456 19.1819C54.4064 19.2144 54.3589 19.254 54.2959 19.3072ZM48.3456 3.00464L48.3456 3.0044L48.3456 3.00464ZM23.8847 17.8456L23.8909 17.8512L23.8971 17.8568C25.6557 19.4189 27.9073 20.4103 30.025 21.0531C32.1604 21.7013 34.2831 22.0315 35.8873 22.2008L38.0415 22.4282L37.811 20.2743C37.6402 18.6775 37.3092 16.5581 36.6626 14.425C36.0215 12.3099 35.0339 10.0587 33.4789 8.30164L33.4722 8.29418L33.4655 8.28679C32.9047 7.66739 32.2218 7.17064 31.4597 6.82773C30.6977 6.48482 29.873 6.30316 29.0375 6.29415L29.028 6.29405H29.0186L28.8643 6.29404L28.8605 6.29405C27.931 6.29604 27.0113 6.48352 26.1553 6.84549C25.2992 7.20745 24.524 7.73664 23.875 8.40203C23.226 9.06742 22.7164 9.85564 22.376 10.7205C22.0368 11.5821 21.8724 12.5025 21.8921 13.4282C21.9026 14.2601 22.0841 15.081 22.4256 15.8398C22.7685 16.6018 23.2653 17.2847 23.8847 17.8456Z" stroke="white" stroke-width="3.5"/>
</g>
<defs>
<filter id="filter0_ddddd_4161_508" x="0.75" y="1.25" width="76.0154" height="91" filterUnits="userSpaceOnUse" color-interpolation-filters="sRGB">
<feFlood flood-opacity="0" result="BackgroundImageFix"/>
<feColorMatrix in="SourceAlpha" type="matrix" values="0 0 0 0 0 0 0 0 0 0 0 0 0 0 0 0 0 0 127 0" result="hardAlpha"/>
<feOffset/>
<feGaussianBlur stdDeviation="0.875"/>
<feColorMatrix type="matrix" values="0 0 0 0 0 0 0 0 0 0 0 0 0 0 0 0 0 0 0.29 0"/>
<feBlend mode="normal" in2="BackgroundImageFix" result="effect1_dropShadow_4161_508"/>
<feColorMatrix in="SourceAlpha" type="matrix" values="0 0 0 0 0 0 0 0 0 0 0 0 0 0 0 0 0 0 127 0" result="hardAlpha"/>
<feOffset dy="3.5"/>
<feGaussianBlur stdDeviation="1.75"/>
<feColorMatrix type="matrix" values="0 0 0 0 0 0 0 0 0 0 0 0 0 0 0 0 0 0 0.26 0"/>
<feBlend mode="normal" in2="effect1_dropShadow_4161_508" result="effect2_dropShadow_4161_508"/>
<feColorMatrix in="SourceAlpha" type="matrix" values="0 0 0 0 0 0 0 0 0 0 0 0 0 0 0 0 0 0 127 0" result="hardAlpha"/>
<feOffset dy="7"/>
<feGaussianBlur stdDeviation="2.625"/>
<feColorMatrix type="matrix" values="0 0 0 0 0 0 0 0 0 0 0 0 0 0 0 0 0 0 0.15 0"/>
<feBlend mode="normal" in2="effect2_dropShadow_4161_508" result="effect3_dropShadow_4161_508"/>
<feColorMatrix in="SourceAlpha" type="matrix" values="0 0 0 0 0 0 0 0 0 0 0 0 0 0 0 0 0 0 127 0" result="hardAlpha"/>
<feOffset dy="14"/>
<feGaussianBlur stdDeviation="2.625"/>
<feColorMatrix type="matrix" values="0 0 0 0 0 0 0 0 0 0 0 0 0 0 0 0 0 0 0.04 0"/>
<feBlend mode="normal" in2="effect3_dropShadow_4161_508" result="effect4_dropShadow_4161_508"/>
<feColorMatrix in="SourceAlpha" type="matrix" values="0 0 0 0 0 0 0 0 0 0 0 0 0 0 0 0 0 0 127 0" result="hardAlpha"/>
<feOffset dy="21"/>
<feGaussianBlur stdDeviation="2.625"/>
<feColorMatrix type="matrix" values="0 0 0 0 0 0 0 0 0 0 0 0 0 0 0 0 0 0 0.01 0"/>
<feBlend mode="normal" in2="effect4_dropShadow_4161_508" result="effect5_dropShadow_4161_508"/>
<feBlend mode="normal" in="SourceGraphic" in2="effect5_dropShadow_4161_508" result="shape"/>
</filter>
</defs>
</svg>
